<?xml version="1.0" encoding="UTF-8" standalone="no"?>
<svg
   xmlns:dc="http://purl.org/dc/elements/1.1/"
   xmlns:cc="http://creativecommons.org/ns#"
   xmlns:rdf="http://www.w3.org/1999/02/22-rdf-syntax-ns#"
   xmlns:svg="http://www.w3.org/2000/svg"
   xmlns="http://www.w3.org/2000/svg"
   xmlns:sodipodi="http://sodipodi.sourceforge.net/DTD/sodipodi-0.dtd"
   xmlns:inkscape="http://www.inkscape.org/namespaces/inkscape"
   width="100mm"
   height="30mm"
   viewBox="0 0 100 30"
   version="1.1"
   id="svg8"
   inkscape:version="1.0.2 (e86c8708, 2021-01-15)"
   sodipodi:docname="endatabas-logo-100x30_v02.svg">
  <defs
     id="defs2" />
  <sodipodi:namedview
     id="base"
     pagecolor="#1f1b17"
     bordercolor="#666666"
     borderopacity="1.0"
     inkscape:pageopacity="0"
     inkscape:pageshadow="2"
     inkscape:zoom="3.3145877"
     inkscape:cx="188.07742"
     inkscape:cy="56.576133"
     inkscape:document-units="mm"
     inkscape:current-layer="layer2"
     inkscape:document-rotation="0"
     showgrid="false"
     inkscape:window-width="1920"
     inkscape:window-height="1027"
     inkscape:window-x="1920"
     inkscape:window-y="25"
     inkscape:window-maximized="0"
     showborder="false"
     inkscape:showpageshadow="false" />
  <metadata
     id="metadata5">
    <rdf:RDF>
      <cc:Work
         rdf:about="">
        <dc:format>image/svg+xml</dc:format>
        <dc:type
           rdf:resource="http://purl.org/dc/dcmitype/StillImage" />
        <dc:title></dc:title>
      </cc:Work>
    </rdf:RDF>
  </metadata>
  <g
     inkscape:groupmode="layer"
     id="layer2"
     inkscape:label="Background">
    <rect
       style="fill:#32382e;fill-opacity:1;stroke-width:0"
       id="rect963"
       width="100"
       height="30"
       x="0"
       y="0"
       sodipodi:insensitive="true" />
  </g>
  <g
     inkscape:label="Layer 1"
     inkscape:groupmode="layer"
     id="layer1">
    <g
       id="g956">
      <g
         id="g929"
         transform="translate(-0.92845413)">
        <rect
           style="fill:#b0a974;fill-opacity:1;stroke-width:0"
           id="rect853-4-5"
           width="9.0623751"
           height="21.361313"
           x="74.14994"
           y="4.3193436" />
        <rect
           style="fill:#b0a974;fill-opacity:1;stroke-width:0"
           id="rect853-4-5-5"
           width="9.0623751"
           height="21.361313"
           x="83.721191"
           y="4.3193436" />
        <rect
           style="fill:#b0a974;fill-opacity:1;stroke-width:0"
           id="rect853-4"
           width="9.0623751"
           height="21.361313"
           x="55.283661"
           y="4.3193417" />
        <rect
           style="fill:#b0a974;fill-opacity:1;stroke-width:0"
           id="rect853-7"
           width="9.0623751"
           height="21.361313"
           x="45.69212"
           y="4.3193417" />
        <rect
           style="fill:#b0a974;fill-opacity:1;stroke-width:0"
           id="rect853"
           width="9.0623751"
           height="21.361313"
           x="36.100578"
           y="4.3193436" />
      </g>
      <g
         aria-label="endatabas"
         id="text835"
         style="font-size:17.6389px;line-height:1.25;font-family:'Atkinson Hyperlegible';-inkscape-font-specification:'Atkinson Hyperlegible';stroke-width:0.264583">
        <path
           d="m 11.143501,21.173615 q -1.5522233,0 -2.2754182,-0.65264 Q 8.1448879,19.850697 8.1448879,18.35139 v -3.175002 q 0,-1.516945 0.6526393,-2.169585 0.6526393,-0.652639 2.1695848,-0.652639 h 0.829028 q 1.252362,0 1.887363,0.705556 0.652639,0.687917 0.652639,2.028474 v 2.293057 H 9.6441944 v 1.322917 q 0,0.546806 0.3351391,0.846668 0.3351395,0.299861 0.9877785,0.299861 h 2.804585 v 1.322918 z m 1.728612,-6.438199 q 0,-0.458612 -0.299861,-0.758473 -0.299861,-0.299861 -0.758473,-0.299861 h -1.023056 q -0.635,0 -0.899584,0.299861 -0.2469446,0.282222 -0.2469446,0.846667 v 1.234723 h 3.2279186 z"
           style="fill:#b0a974;fill-opacity:1"
           id="path921" />
        <path
           d="m 18.940997,12.354164 v 0.423334 q 0.546806,-0.423334 1.411112,-0.423334 h 0.81139 q 1.428751,0 2.116668,0.670278 0.705556,0.670279 0.705556,2.151946 v 5.997227 H 22.486416 V 14.82361 q 0,-0.529167 -0.3175,-0.829028 -0.299861,-0.3175 -0.829028,-0.3175 H 20.17572 q -0.582083,0 -0.864306,0.3175 -0.282222,0.299861 -0.282222,0.652639 v 6.526394 h -1.499307 v -8.819451 z"
           style="fill:#b0a974;fill-opacity:1"
           id="path923" />
        <path
           d="m 32.118358,20.76792 q -0.582084,0.405695 -1.411112,0.405695 h -0.723195 q -1.552223,0 -2.275418,-0.65264 -0.723195,-0.670278 -0.723195,-2.169585 v -3.175002 q 0,-1.481667 0.723195,-2.151946 0.740834,-0.670278 2.275418,-0.670278 h 2.046113 v -3.52778 h 1.499306 v 12.347231 h -1.411112 z m -1.234723,-0.917223 q 0.582084,0 0.864306,-0.299861 0.282223,-0.317501 0.282223,-0.670279 v -5.203475 h -2.222502 q -0.652639,0 -0.987778,0.299861 -0.335139,0.299861 -0.335139,0.846667 v 3.880558 q 0,0.546806 0.335139,0.846668 0.335139,0.299861 0.987778,0.299861 z"
           style="fill:#b0a974;fill-opacity:1"
           id="path925" />
        <path
           d="m 42.367663,21.173615 q -0.229306,0 -0.511529,-0.141112 -0.264583,-0.141111 -0.458611,-0.388056 -0.405695,0.529168 -1.075973,0.529168 h -1.569862 q -1.340557,0 -1.957918,-0.529168 -0.599723,-0.546805 -0.599723,-1.852084 v -0.352778 q 0,-2.73403 2.57528,-2.73403 H 40.95655 V 14.82361 q 0,-0.546806 -0.335139,-0.846667 -0.335139,-0.299861 -0.987778,-0.299861 h -2.73403 v -1.322918 h 2.557641 q 1.534584,0 2.257779,0.670278 0.740834,0.670279 0.740834,2.151946 v 4.233336 q 0,0.264584 0.194028,0.405695 0.211667,0.123472 0.687917,0.123472 v 1.234724 z m -2.222502,-1.322918 q 0.529167,0 0.670278,-0.246945 0.141111,-0.246944 0.141111,-0.635 v -1.940279 h -2.204862 q -0.458612,0 -0.758473,0.299861 -0.299861,0.299861 -0.299861,0.758473 v 0.881945 q 0,0.458611 0.211667,0.670278 0.211666,0.211667 0.670278,0.211667 z"
           style="fill:#32382e;fill-opacity:1"
           id="path927" />
        <path
           d="m 49.935852,21.173615 q -0.899584,0 -1.375834,-0.582084 -0.476251,-0.582084 -0.476251,-1.534585 v -5.379864 h -1.675695 v -1.322918 h 1.675695 v -2.116668 h 1.499307 v 2.116668 h 2.57528 v 1.322918 h -2.57528 v 5.468059 q 0,0.388056 0.194028,0.546806 0.194028,0.15875 0.599723,0.15875 h 1.781529 v 1.322918 z"
           style="fill:#32382e;fill-opacity:1"
           id="path929" />
        <path
           d="m 61.3846,21.173615 q -0.229306,0 -0.511528,-0.141112 -0.264584,-0.141111 -0.458612,-0.388056 -0.405695,0.529168 -1.075973,0.529168 h -1.569862 q -1.340556,0 -1.957918,-0.529168 -0.599723,-0.546805 -0.599723,-1.852084 v -0.352778 q 0,-2.73403 2.57528,-2.73403 h 2.187224 V 14.82361 q 0,-0.546806 -0.335139,-0.846667 -0.33514,-0.299861 -0.987779,-0.299861 h -2.734029 v -1.322918 h 2.55764 q 1.534584,0 2.257779,0.670278 0.740834,0.670279 0.740834,2.151946 v 4.233336 q 0,0.264584 0.194028,0.405695 0.211667,0.123472 0.687917,0.123472 v 1.234724 z m -2.222502,-1.322918 q 0.529167,0 0.670278,-0.246945 0.141112,-0.246944 0.141112,-0.635 v -1.940279 h -2.204863 q -0.458611,0 -0.758473,0.299861 -0.299861,0.299861 -0.299861,0.758473 v 0.881945 q 0,0.458611 0.211667,0.670278 0.211667,0.211667 0.670278,0.211667 z"
           style="fill:#32382e;fill-opacity:1"
           id="path931" />
        <path
           d="m 71.528073,18.35139 q 0,1.481668 -0.740834,2.151946 -0.723195,0.670279 -2.25778,0.670279 H 65.072235 V 8.826384 h 1.499307 v 3.880558 q 0.529167,-0.352778 1.322917,-0.352778 h 0.635 q 1.552224,0 2.275419,0.670278 0.723195,0.65264 0.723195,2.151946 z M 67.71807,13.677082 q -0.582084,0 -0.864306,0.3175 -0.282222,0.299861 -0.282222,0.652639 v 5.203476 h 2.134307 q 0.652639,0 0.987778,-0.299861 0.335139,-0.299862 0.335139,-0.846668 V 14.82361 q 0,-0.546806 -0.335139,-0.846667 -0.335139,-0.299861 -0.987778,-0.299861 z"
           style="fill:#b0a974;fill-opacity:1"
           id="path933" />
        <path
           d="m 80.401541,21.173615 q -0.229306,0 -0.511528,-0.141112 -0.264584,-0.141111 -0.458612,-0.388056 -0.405694,0.529168 -1.075973,0.529168 h -1.569862 q -1.340556,0 -1.957918,-0.529168 -0.599722,-0.546805 -0.599722,-1.852084 v -0.352778 q 0,-2.73403 2.575279,-2.73403 h 2.187224 V 14.82361 q 0,-0.546806 -0.335139,-0.846667 -0.335139,-0.299861 -0.987779,-0.299861 h -2.734029 v -1.322918 h 2.55764 q 1.534585,0 2.25778,0.670278 0.740833,0.670279 0.740833,2.151946 v 4.233336 q 0,0.264584 0.194028,0.405695 0.211667,0.123472 0.687917,0.123472 v 1.234724 z m -2.222502,-1.322918 q 0.529167,0 0.670279,-0.246945 0.141111,-0.246944 0.141111,-0.635 v -1.940279 h -2.204863 q -0.458611,0 -0.758473,0.299861 -0.299861,0.299861 -0.299861,0.758473 v 0.881945 q 0,0.458611 0.211667,0.670278 0.211667,0.211667 0.670278,0.211667 z"
           style="fill:#32382e;fill-opacity:1"
           id="path935" />
        <path
           d="m 89.998204,18.968752 q 0,1.111251 -0.687917,1.658057 -0.670278,0.546806 -1.957918,0.546806 h -2.628196 v -1.322918 h 2.804585 q 0.47625,0 0.723195,-0.194028 0.246944,-0.211667 0.246944,-0.599723 v -0.934861 q 0,-0.793751 -0.758472,-0.793751 h -0.65264 q -1.234723,0 -1.852084,-0.529167 -0.599723,-0.546806 -0.599723,-1.710973 v -0.511528 q 0,-1.181807 0.670278,-1.693335 0.670279,-0.529167 1.975557,-0.529167 h 2.363613 v 1.322918 h -2.540002 q -0.440972,0 -0.705556,0.211666 -0.264583,0.194028 -0.264583,0.582084 v 0.635001 q 0,0.405694 0.229305,0.599722 0.246945,0.194028 0.617362,0.194028 h 0.599723 q 1.181806,0 1.799167,0.582084 0.617362,0.564445 0.617362,1.693334 z"
           style="fill:#32382e;fill-opacity:1"
           id="path937" />
      </g>
    </g>
  </g>
</svg>
